<svg  version="1.1" xmlns="http://www.w3.org/2000/svg">
  <defs>
    <symbol id="image" viewBox="0 0 16 16">
      <title>image</title>
      <path d="M14.998 2c0.001 0.001 0.001 0.001 0.002 0.002v11.996c-0.001 0.001-0.001 0.001-0.002 0.002h-13.996c-0.001-0.001-0.001-0.001-0.002-0.002v-11.996c0.001-0.001 0.001-0.001 0.002-0.002h13.996zM15 1h-14c-0.55 0-1 0.45-1 1v12c0 0.55 0.45 1 1 1h14c0.55 0 1-0.45 1-1v-12c0-0.55-0.45-1-1-1v0z"></path>
      <path d="M13 4.5c0 0.828-0.672 1.5-1.5 1.5s-1.5-0.672-1.5-1.5 0.672-1.5 1.5-1.5 1.5 0.672 1.5 1.5z"></path>
      <path d="M14 13h-12v-2l3.5-6 4 5h1l3.5-3z"></path>
    </symbol>
    <symbol id="images" viewBox="0 0 18 16">
      <title>images</title>
      <path d="M17 2h-1v-1c0-0.55-0.45-1-1-1h-14c-0.55 0-1 0.45-1 1v12c0 0.55 0.45 1 1 1h1v1c0 0.55 0.45 1 1 1h14c0.55 0 1-0.45 1-1v-12c0-0.55-0.45-1-1-1zM2 3v10h-0.998c-0.001-0.001-0.001-0.001-0.002-0.002v-11.996c0.001-0.001 0.001-0.001 0.002-0.002h13.996c0.001 0.001 0.001 0.001 0.002 0.002v0.998h-12c-0.55 0-1 0.45-1 1v0zM17 14.998c-0.001 0.001-0.001 0.001-0.002 0.002h-13.996c-0.001-0.001-0.001-0.001-0.002-0.002v-11.996c0.001-0.001 0.001-0.001 0.002-0.002h13.996c0.001 0.001 0.001 0.001 0.002 0.002v11.996z"></path>
      <path d="M15 5.5c0 0.828-0.672 1.5-1.5 1.5s-1.5-0.672-1.5-1.5 0.672-1.5 1.5-1.5 1.5 0.672 1.5 1.5z"></path>
      <path d="M16 14h-12v-2l3.5-6 4 5h1l3.5-3z"></path>
    </symbol>
    <symbol id="camera" viewBox="0 0 16 16">
      <title>camera</title>
      <path d="M4.75 9.5c0 1.795 1.455 3.25 3.25 3.25s3.25-1.455 3.25-3.25-1.455-3.25-3.25-3.25-3.25 1.455-3.25 3.25zM15 4h-3.5c-0.25-1-0.5-2-1.5-2h-4c-1 0-1.25 1-1.5 2h-3.5c-0.55 0-1 0.45-1 1v9c0 0.55 0.45 1 1 1h14c0.55 0 1-0.45 1-1v-9c0-0.55-0.45-1-1-1zM8 13.938c-2.451 0-4.438-1.987-4.438-4.438s1.987-4.438 4.438-4.438c2.451 0 4.438 1.987 4.438 4.438s-1.987 4.438-4.438 4.438zM15 7h-2v-1h2v1z"></path>
    </symbol>
    <symbol id="clock" viewBox="0 0 16 16">
      <title>clock</title>
      <path d="M10.293 11.707l-3.293-3.293v-4.414h2v3.586l2.707 2.707zM8 0c-4.418 0-8 3.582-8 8s3.582 8 8 8 8-3.582 8-8-3.582-8-8-8zM8 14c-3.314 0-6-2.686-6-6s2.686-6 6-6c3.314 0 6 2.686 6 6s-2.686 6-6 6z"></path>
    </symbol>
    <symbol id="headphones" viewBox="0 0 16 16">
      <title>headphones</title>
      <path d="M4.5 9h-1v7h1c0.275 0 0.5-0.225 0.5-0.5v-6c0-0.275-0.225-0.5-0.5-0.5z"></path>
      <path d="M11.5 9c-0.275 0-0.5 0.225-0.5 0.5v6c0 0.275 0.225 0.5 0.5 0.5h1v-7h-1z"></path>
      <path d="M16 8c0-4.418-3.582-8-8-8s-8 3.582-8 8c0 0.96 0.169 1.88 0.479 2.732-0.304 0.519-0.479 1.123-0.479 1.768 0 1.763 1.304 3.222 3 3.464v-6.928c-0.499 0.071-0.963 0.248-1.371 0.506-0.084-0.417-0.129-0.849-0.129-1.292 0-3.59 2.91-6.5 6.5-6.5s6.5 2.91 6.5 6.5c0 0.442-0.044 0.874-0.128 1.292-0.408-0.259-0.873-0.435-1.372-0.507v6.929c1.696-0.243 3-1.701 3-3.464 0-0.645-0.175-1.249-0.479-1.768 0.31-0.853 0.479-1.773 0.479-2.732z"></path>
    </symbol>
    <symbol id="qrcode" viewBox="0 0 16 16">
      <title>qrcode</title>
      <path d="M5 1h-4v4h4v-4zM6 0v0 6h-6v-6h6zM2 2h2v2h-2zM15 1h-4v4h4v-4zM16 0v0 6h-6v-6h6zM12 2h2v2h-2zM5 11h-4v4h4v-4zM6 10v0 6h-6v-6h6zM2 12h2v2h-2zM7 0h1v1h-1zM8 1h1v1h-1zM7 2h1v1h-1zM8 3h1v1h-1zM7 4h1v1h-1zM8 5h1v1h-1zM7 6h1v1h-1zM7 8h1v1h-1zM8 9h1v1h-1zM7 10h1v1h-1zM8 11h1v1h-1zM7 12h1v1h-1zM8 13h1v1h-1zM7 14h1v1h-1zM8 15h1v1h-1zM15 8h1v1h-1zM1 8h1v1h-1zM2 7h1v1h-1zM0 7h1v1h-1zM4 7h1v1h-1zM5 8h1v1h-1zM6 7h1v1h-1zM9 8h1v1h-1zM10 7h1v1h-1zM11 8h1v1h-1zM12 7h1v1h-1zM13 8h1v1h-1zM14 7h1v1h-1zM15 10h1v1h-1zM9 10h1v1h-1zM10 9h1v1h-1zM11 10h1v1h-1zM13 10h1v1h-1zM14 9h1v1h-1zM15 12h1v1h-1zM9 12h1v1h-1zM10 11h1v1h-1zM12 11h1v1h-1zM13 12h1v1h-1zM14 11h1v1h-1zM15 14h1v1h-1zM10 13h1v1h-1zM11 14h1v1h-1zM12 13h1v1h-1zM13 14h1v1h-1zM10 15h1v1h-1zM12 15h1v1h-1zM14 15h1v1h-1z"></path>
    </symbol>
    <symbol id="location" viewBox="0 0 16 16">
      <title>location</title>
      <path d="M8 0c-2.761 0-5 2.239-5 5 0 5 5 11 5 11s5-6 5-11c0-2.761-2.239-5-5-5zM8 8c-1.657 0-3-1.343-3-3s1.343-3 3-3 3 1.343 3 3-1.343 3-3 3z"></path>
    </symbol>
    <symbol id="compass" viewBox="0 0 16 16">
      <title>compass</title>
      <path d="M8 0c-4.418 0-8 3.582-8 8s3.582 8 8 8 8-3.582 8-8-3.582-8-8-8zM1.5 8c0-3.59 2.91-6.5 6.5-6.5 1.712 0 3.269 0.662 4.43 1.744l-6.43 2.756-2.756 6.43c-1.082-1.161-1.744-2.718-1.744-4.43zM9.143 9.143l-4.001 1.715 1.715-4.001 2.286 2.286zM8 14.5c-1.712 0-3.269-0.662-4.43-1.744l6.43-2.756 2.756-6.43c1.082 1.161 1.744 2.718 1.744 4.43 0 3.59-2.91 6.5-6.5 6.5z"></path>
    </symbol>
    <symbol id="map" viewBox="0 0 16 16">
      <title>map</title>
      <path d="M0 3l5-2v12l-5 2z"></path>
      <path d="M6 0.5l5 3v11.5l-5-2.5z"></path>
      <path d="M12 3.5l4-3v12l-4 3z"></path>
    </symbol>
    <symbol id="calendar" viewBox="0 0 16 16">
      <title>calendar</title>
      <path d="M5 6h2v2h-2zM8 6h2v2h-2zM11 6h2v2h-2zM2 12h2v2h-2zM5 12h2v2h-2zM8 12h2v2h-2zM5 9h2v2h-2zM8 9h2v2h-2zM11 9h2v2h-2zM2 9h2v2h-2zM13 0v1h-2v-1h-7v1h-2v-1h-2v16h15v-16h-2zM14 15h-13v-11h13v11z"></path>
    </symbol>
    <symbol id="enlarge" viewBox="0 0 16 16">
      <title>enlarge</title>
      <path d="M16 0v6.5l-2.5-2.5-3 3-1.5-1.5 3-3-2.5-2.5zM7 10.5l-3 3 2.5 2.5h-6.5v-6.5l2.5 2.5 3-3z"></path>
    </symbol>
    <symbol id="shrink" viewBox="0 0 16 16">
      <title>shrink</title>
      <path d="M7 9v6.5l-2.5-2.5-3 3-1.5-1.5 3-3-2.5-2.5zM16 1.5l-3 3 2.5 2.5h-6.5v-6.5l2.5 2.5 3-3z"></path>
    </symbol>
    <symbol id="bookmarks" viewBox="0 0 16 16">
      <title>bookmarks</title>
      <path d="M4 2v14l5-5 5 5v-14zM12 0h-10v14l1-1v-12h9z"></path>
    </symbol>
    <symbol id="cancel" viewBox="0 0 16 16">
      <title>cancel</title>
      <path d="M8 0c-4.418 0-8 3.582-8 8s3.582 8 8 8 8-3.582 8-8-3.582-8-8-8zM8 14.5c-3.59 0-6.5-2.91-6.5-6.5s2.91-6.5 6.5-6.5 6.5 2.91 6.5 6.5-2.91 6.5-6.5 6.5z"></path>
      <path d="M10.5 4l-2.5 2.5-2.5-2.5-1.5 1.5 2.5 2.5-2.5 2.5 1.5 1.5 2.5-2.5 2.5 2.5 1.5-1.5-2.5-2.5 2.5-2.5z"></path>
    </symbol>
    <symbol id="play" viewBox="0 0 16 16">
      <title>play</title>
      <path d="M8 0c-4.418 0-8 3.582-8 8s3.582 8 8 8 8-3.582 8-8-3.582-8-8-8zM8 14.5c-3.59 0-6.5-2.91-6.5-6.5s2.91-6.5 6.5-6.5 6.5 2.91 6.5 6.5-2.91 6.5-6.5 6.5zM6 4.5l6 3.5-6 3.5z"></path>
    </symbol>
    <symbol id="pause" viewBox="0 0 16 16">
      <title>pause</title>
      <path d="M8 0c-4.418 0-8 3.582-8 8s3.582 8 8 8 8-3.582 8-8-3.582-8-8-8zM8 14.5c-3.59 0-6.5-2.91-6.5-6.5s2.91-6.5 6.5-6.5 6.5 2.91 6.5 6.5-2.91 6.5-6.5 6.5zM5 5h2v6h-2zM9 5h2v6h-2z"></path>
    </symbol>
    <symbol id="stop" viewBox="0 0 16 16">
      <title>stop</title>
      <path d="M8 0c-4.418 0-8 3.582-8 8s3.582 8 8 8 8-3.582 8-8-3.582-8-8-8zM8 14.5c-3.59 0-6.5-2.91-6.5-6.5s2.91-6.5 6.5-6.5 6.5 2.91 6.5 6.5-2.91 6.5-6.5 6.5zM5 5h6v6h-6z"></path>
    </symbol>
    <symbol id="checkbox-checked" viewBox="0 0 16 16">
      <title>checkbox-checked</title>
      <path d="M14 0h-12c-1.1 0-2 0.9-2 2v12c0 1.1 0.9 2 2 2h12c1.1 0 2-0.9 2-2v-12c0-1.1-0.9-2-2-2zM7 12.414l-3.707-3.707 1.414-1.414 2.293 2.293 4.793-4.793 1.414 1.414-6.207 6.207z"></path>
    </symbol>
    <symbol id="checkbox-unchecked" viewBox="0 0 16 16">
      <title>checkbox-unchecked</title>
      <path d="M14 0h-12c-1.1 0-2 0.9-2 2v12c0 1.1 0.9 2 2 2h12c1.1 0 2-0.9 2-2v-12c0-1.1-0.9-2-2-2zM14 14h-12v-12h12v12z"></path>
    </symbol>
    <symbol id="html-tag" viewBox="0 0 20 16">
      <title>html-tag</title>
      <path d="M13 11.5l1.5 1.5 5-5-5-5-1.5 1.5 3.5 3.5z"></path>
      <path d="M7 4.5l-1.5-1.5-5 5 5 5 1.5-1.5-3.5-3.5z"></path>
      <path d="M10.958 2.352l1.085 0.296-3 11-1.085-0.296 3-11z"></path>
    </symbol>
    <symbol id="twitter" viewBox="0 0 16 16">
      <title>twitter</title>
      <path d="M16 3.538c-0.588 0.263-1.222 0.438-1.884 0.516 0.678-0.406 1.197-1.050 1.444-1.816-0.634 0.375-1.338 0.65-2.084 0.797-0.6-0.638-1.453-1.034-2.397-1.034-1.813 0-3.281 1.469-3.281 3.281 0 0.256 0.028 0.506 0.084 0.747-2.728-0.138-5.147-1.444-6.766-3.431-0.281 0.484-0.444 1.050-0.444 1.65 0 1.138 0.578 2.144 1.459 2.731-0.538-0.016-1.044-0.166-1.488-0.409 0 0.013 0 0.028 0 0.041 0 1.591 1.131 2.919 2.634 3.219-0.275 0.075-0.566 0.116-0.866 0.116-0.212 0-0.416-0.022-0.619-0.059 0.419 1.303 1.631 2.253 3.066 2.281-1.125 0.881-2.538 1.406-4.078 1.406-0.266 0-0.525-0.016-0.784-0.047 1.456 0.934 3.181 1.475 5.034 1.475 6.037 0 9.341-5.003 9.341-9.341 0-0.144-0.003-0.284-0.009-0.425 0.641-0.459 1.197-1.038 1.637-1.697z"></path>
    </symbol>
    <symbol id="rss" viewBox="0 0 16 16">
      <title>rss</title>
      <path d="M2.13 11.733c-1.175 0-2.13 0.958-2.13 2.126 0 1.174 0.955 2.122 2.13 2.122 1.179 0 2.133-0.948 2.133-2.122-0-1.168-0.954-2.126-2.133-2.126zM0.002 5.436v3.067c1.997 0 3.874 0.781 5.288 2.196 1.412 1.411 2.192 3.297 2.192 5.302h3.080c-0-5.825-4.739-10.564-10.56-10.564zM0.006 0v3.068c7.122 0 12.918 5.802 12.918 12.932h3.076c0-8.82-7.176-16-15.994-16z"></path>
    </symbol>
    <symbol id="youtube" viewBox="0 0 16 16">
      <title>youtube</title>
      <path d="M15.841 4.8c0 0-0.156-1.103-0.637-1.587-0.609-0.637-1.291-0.641-1.603-0.678-2.237-0.163-5.597-0.163-5.597-0.163h-0.006c0 0-3.359 0-5.597 0.163-0.313 0.038-0.994 0.041-1.603 0.678-0.481 0.484-0.634 1.587-0.634 1.587s-0.159 1.294-0.159 2.591v1.213c0 1.294 0.159 2.591 0.159 2.591s0.156 1.103 0.634 1.588c0.609 0.637 1.409 0.616 1.766 0.684 1.281 0.122 5.441 0.159 5.441 0.159s3.363-0.006 5.6-0.166c0.313-0.037 0.994-0.041 1.603-0.678 0.481-0.484 0.637-1.588 0.637-1.588s0.159-1.294 0.159-2.591v-1.213c-0.003-1.294-0.162-2.591-0.162-2.591zM6.347 10.075v-4.497l4.322 2.256-4.322 2.241z"></path>
    </symbol>
    <symbol id="github" viewBox="0 0 16 16">
      <title>github</title>
      <path d="M8 0.198c-4.418 0-8 3.582-8 8 0 3.535 2.292 6.533 5.471 7.591 0.4 0.074 0.547-0.174 0.547-0.385 0-0.191-0.008-0.821-0.011-1.489-2.226 0.484-2.695-0.944-2.695-0.944-0.364-0.925-0.888-1.171-0.888-1.171-0.726-0.497 0.055-0.486 0.055-0.486 0.803 0.056 1.226 0.824 1.226 0.824 0.714 1.223 1.872 0.869 2.328 0.665 0.072-0.517 0.279-0.87 0.508-1.070-1.777-0.202-3.645-0.888-3.645-3.954 0-0.873 0.313-1.587 0.824-2.147-0.083-0.202-0.357-1.015 0.077-2.117 0 0 0.672-0.215 2.201 0.82 0.638-0.177 1.322-0.266 2.002-0.269 0.68 0.003 1.365 0.092 2.004 0.269 1.527-1.035 2.198-0.82 2.198-0.82 0.435 1.102 0.162 1.916 0.079 2.117 0.513 0.56 0.823 1.274 0.823 2.147 0 3.073-1.872 3.749-3.653 3.947 0.287 0.248 0.543 0.735 0.543 1.481 0 1.070-0.009 1.932-0.009 2.195 0 0.213 0.144 0.462 0.55 0.384 3.177-1.059 5.466-4.057 5.466-7.59 0-4.418-3.582-8-8-8z"></path>
    </symbol>
  </defs>
</svg>
